<?xml version="1.0" encoding="UTF-8"?>
<svg width="50px" height="30px" viewBox="0 0 50 30" version="1.1" xmlns="http://www.w3.org/2000/svg" xmlns:xlink="http://www.w3.org/1999/xlink">
    <!-- Generator: sketchtool 48.1 (47250) - http://www.bohemiancoding.com/sketch -->
    <title>2E400FB6-C5FF-43D9-A1D7-D2E0155BCE84</title>
    <desc>Created with sketchtool.</desc>
    <defs>
        <rect id="path-1" x="0" y="0" width="50" height="30" rx="2"></rect>
    </defs>
    <g id="Icon/Flag/50px/EU" stroke="none" stroke-width="1" fill="none" fill-rule="evenodd">
        <g id="EU">
            <mask id="mask-2" fill="white">
                <use xlink:href="#path-1"></use>
            </mask>
            <use id="Mask" fill="#FFFFFF" xlink:href="#path-1"></use>
            <rect id="Mask-Copy" fill="#043CAE" mask="url(#mask-2)" x="0" y="0" width="50" height="30"></rect>
            <path d="M24.5,6.41421356 L23.0751576,6.82842712 L23.4924842,5.41421356 L23.0751576,4 L24.5,4.41421356 L25.9248424,4 L25.5075158,5.41421356 L25.9248424,6.82842712 L24.5,6.41421356 Z M24.5,26.4142136 L23.0751576,26.8284271 L23.4924842,25.4142136 L23.0751576,24 L24.5,24.4142136 L25.9248424,24 L25.5075158,25.4142136 L25.9248424,26.8284271 L24.5,26.4142136 Z M34.5751576,16.4142136 L33.1503151,16.8284271 L33.5676418,15.4142136 L33.1503151,14 L34.5751576,14.4142136 L36,14 L35.5826733,15.4142136 L36,16.8284271 L34.5751576,16.4142136 Z M14.4248424,16.4142136 L13,16.8284271 L13.4173267,15.4142136 L13,14 L14.4248424,14.4142136 L15.8496849,14 L15.4323582,15.4142136 L15.8496849,16.8284271 L14.4248424,16.4142136 Z M33.2253424,11.4142136 L31.8004999,11.8284271 L32.2178266,10.4142136 L31.8004999,9 L33.2253424,9.41421356 L34.6501848,9 L34.2328581,10.4142136 L34.6501848,11.8284271 L33.2253424,11.4142136 Z M15.7746576,21.4142136 L14.3498152,21.8284271 L14.7671419,20.4142136 L14.3498152,19 L15.7746576,19.4142136 L17.1995001,19 L16.7821734,20.4142136 L17.1995001,21.8284271 L15.7746576,21.4142136 Z M29.5375788,7.75395952 L28.1127363,8.16817309 L28.530063,6.75395952 L28.1127363,5.33974596 L29.5375788,5.75395952 L30.9624212,5.33974596 L30.5450945,6.75395952 L30.9624212,8.16817309 L29.5375788,7.75395952 Z M19.4624212,25.0744676 L18.0375788,25.4886812 L18.4549055,24.0744676 L18.0375788,22.660254 L19.4624212,23.0744676 L20.8872637,22.660254 L20.469937,24.0744676 L20.8872637,25.4886812 L19.4624212,25.0744676 Z M33.2253424,21.4142136 L31.8004999,21.8284271 L32.2178266,20.4142136 L31.8004999,19 L33.2253424,19.4142136 L34.6501848,19 L34.2328581,20.4142136 L34.6501848,21.8284271 L33.2253424,21.4142136 Z M15.7746576,11.4142136 L14.3498152,11.8284271 L14.7671419,10.4142136 L14.3498152,9 L15.7746576,9.41421356 L17.1995001,9 L16.7821734,10.4142136 L17.1995001,11.8284271 L15.7746576,11.4142136 Z M29.5375788,25.0744676 L28.1127363,25.4886812 L28.530063,24.0744676 L28.1127363,22.660254 L29.5375788,23.0744676 L30.9624212,22.660254 L30.5450945,24.0744676 L30.9624212,25.4886812 L29.5375788,25.0744676 Z M19.4624212,7.75395952 L18.0375788,8.16817309 L18.4549055,6.75395952 L18.0375788,5.33974596 L19.4624212,5.75395952 L20.8872637,5.33974596 L20.469937,6.75395952 L20.8872637,8.16817309 L19.4624212,7.75395952 Z" id="Star-2" fill="#FFD429" mask="url(#mask-2)"></path>
        </g>
    </g>
</svg>
