<?xml version="1.0" encoding="UTF-8"?>
<svg width="32px" height="20px" viewBox="0 0 32 20" version="1.1" xmlns="http://www.w3.org/2000/svg" xmlns:xlink="http://www.w3.org/1999/xlink">
    <!-- Generator: sketchtool 48.1 (47250) - http://www.bohemiancoding.com/sketch -->
    <title>B1F7A217-D2A2-4BD2-84F0-D11D727EE35D</title>
    <desc>Created with sketchtool.</desc>
    <defs>
        <rect id="path-1" x="0" y="0" width="32" height="20" rx="1"></rect>
        <linearGradient x1="50%" y1="0%" x2="50%" y2="100%" id="linearGradient-3">
            <stop stop-color="#FFFFFF" offset="0%"></stop>
            <stop stop-color="#F0F0F0" offset="100%"></stop>
        </linearGradient>
    </defs>
    <g id="Icon/Flag/32px/US" stroke="none" stroke-width="1" fill="none" fill-rule="evenodd">
        <g id="US">
            <mask id="mask-2" fill="white">
                <use xlink:href="#path-1"></use>
            </mask>
            <use id="Mask" fill="#FFFFFF" xlink:href="#path-1"></use>
            <path d="M0,0 L32,0 L32,1.33333333 L0,1.33333333 L0,0 Z M0,2.66666667 L32,2.66666667 L32,4 L0,4 L0,2.66666667 Z M0,5.33333333 L32,5.33333333 L32,6.66666667 L0,6.66666667 L0,5.33333333 Z M0,8 L32,8 L32,9.33333333 L0,9.33333333 L0,8 Z M0,10.6666667 L32,10.6666667 L32,12 L0,12 L0,10.6666667 Z M0,13.3333333 L32,13.3333333 L32,14.6666667 L0,14.6666667 L0,13.3333333 Z M0,16 L32,16 L32,17.3333333 L0,17.3333333 L0,16 Z M0,18.6666667 L32,18.6666667 L32,20 L0,20 L0,18.6666667 Z" id="Rectangle-511" fill="#D02F44" mask="url(#mask-2)"></path>
            <rect id="Rectangle-511" fill="#46467F" mask="url(#mask-2)" x="0" y="0" width="13.7142857" height="9.33333333"></rect>
            <path d="M2.28571429,2.66666667 C1.8649259,2.66666667 1.52380952,2.36818983 1.52380952,2 C1.52380952,1.63181017 1.8649259,1.33333333 2.28571429,1.33333333 C2.70650267,1.33333333 3.04761905,1.63181017 3.04761905,2 C3.04761905,2.36818983 2.70650267,2.66666667 2.28571429,2.66666667 Z M5.33333333,2.66666667 C4.91254495,2.66666667 4.57142857,2.36818983 4.57142857,2 C4.57142857,1.63181017 4.91254495,1.33333333 5.33333333,1.33333333 C5.75412171,1.33333333 6.0952381,1.63181017 6.0952381,2 C6.0952381,2.36818983 5.75412171,2.66666667 5.33333333,2.66666667 Z M8.38095238,2.66666667 C7.960164,2.66666667 7.61904762,2.36818983 7.61904762,2 C7.61904762,1.63181017 7.960164,1.33333333 8.38095238,1.33333333 C8.80174076,1.33333333 9.14285714,1.63181017 9.14285714,2 C9.14285714,2.36818983 8.80174076,2.66666667 8.38095238,2.66666667 Z M11.4285714,2.66666667 C11.007783,2.66666667 10.6666667,2.36818983 10.6666667,2 C10.6666667,1.63181017 11.007783,1.33333333 11.4285714,1.33333333 C11.8493598,1.33333333 12.1904762,1.63181017 12.1904762,2 C12.1904762,2.36818983 11.8493598,2.66666667 11.4285714,2.66666667 Z M3.80952381,4 C3.38873543,4 3.04761905,3.70152317 3.04761905,3.33333333 C3.04761905,2.9651435 3.38873543,2.66666667 3.80952381,2.66666667 C4.23031219,2.66666667 4.57142857,2.9651435 4.57142857,3.33333333 C4.57142857,3.70152317 4.23031219,4 3.80952381,4 Z M6.85714286,4 C6.43635448,4 6.0952381,3.70152317 6.0952381,3.33333333 C6.0952381,2.9651435 6.43635448,2.66666667 6.85714286,2.66666667 C7.27793124,2.66666667 7.61904762,2.9651435 7.61904762,3.33333333 C7.61904762,3.70152317 7.27793124,4 6.85714286,4 Z M9.9047619,4 C9.48397352,4 9.14285714,3.70152317 9.14285714,3.33333333 C9.14285714,2.9651435 9.48397352,2.66666667 9.9047619,2.66666667 C10.3255503,2.66666667 10.6666667,2.9651435 10.6666667,3.33333333 C10.6666667,3.70152317 10.3255503,4 9.9047619,4 Z M11.4285714,5.33333333 C11.007783,5.33333333 10.6666667,5.0348565 10.6666667,4.66666667 C10.6666667,4.29847683 11.007783,4 11.4285714,4 C11.8493598,4 12.1904762,4.29847683 12.1904762,4.66666667 C12.1904762,5.0348565 11.8493598,5.33333333 11.4285714,5.33333333 Z M8.38095238,5.33333333 C7.960164,5.33333333 7.61904762,5.0348565 7.61904762,4.66666667 C7.61904762,4.29847683 7.960164,4 8.38095238,4 C8.80174076,4 9.14285714,4.29847683 9.14285714,4.66666667 C9.14285714,5.0348565 8.80174076,5.33333333 8.38095238,5.33333333 Z M5.33333333,5.33333333 C4.91254495,5.33333333 4.57142857,5.0348565 4.57142857,4.66666667 C4.57142857,4.29847683 4.91254495,4 5.33333333,4 C5.75412171,4 6.0952381,4.29847683 6.0952381,4.66666667 C6.0952381,5.0348565 5.75412171,5.33333333 5.33333333,5.33333333 Z M2.28571429,5.33333333 C1.8649259,5.33333333 1.52380952,5.0348565 1.52380952,4.66666667 C1.52380952,4.29847683 1.8649259,4 2.28571429,4 C2.70650267,4 3.04761905,4.29847683 3.04761905,4.66666667 C3.04761905,5.0348565 2.70650267,5.33333333 2.28571429,5.33333333 Z M3.80952381,6.66666667 C3.38873543,6.66666667 3.04761905,6.36818983 3.04761905,6 C3.04761905,5.63181017 3.38873543,5.33333333 3.80952381,5.33333333 C4.23031219,5.33333333 4.57142857,5.63181017 4.57142857,6 C4.57142857,6.36818983 4.23031219,6.66666667 3.80952381,6.66666667 Z M6.85714286,6.66666667 C6.43635448,6.66666667 6.0952381,6.36818983 6.0952381,6 C6.0952381,5.63181017 6.43635448,5.33333333 6.85714286,5.33333333 C7.27793124,5.33333333 7.61904762,5.63181017 7.61904762,6 C7.61904762,6.36818983 7.27793124,6.66666667 6.85714286,6.66666667 Z M9.9047619,6.66666667 C9.48397352,6.66666667 9.14285714,6.36818983 9.14285714,6 C9.14285714,5.63181017 9.48397352,5.33333333 9.9047619,5.33333333 C10.3255503,5.33333333 10.6666667,5.63181017 10.6666667,6 C10.6666667,6.36818983 10.3255503,6.66666667 9.9047619,6.66666667 Z M11.4285714,8 C11.007783,8 10.6666667,7.70152317 10.6666667,7.33333333 C10.6666667,6.9651435 11.007783,6.66666667 11.4285714,6.66666667 C11.8493598,6.66666667 12.1904762,6.9651435 12.1904762,7.33333333 C12.1904762,7.70152317 11.8493598,8 11.4285714,8 Z M8.38095238,8 C7.960164,8 7.61904762,7.70152317 7.61904762,7.33333333 C7.61904762,6.9651435 7.960164,6.66666667 8.38095238,6.66666667 C8.80174076,6.66666667 9.14285714,6.9651435 9.14285714,7.33333333 C9.14285714,7.70152317 8.80174076,8 8.38095238,8 Z M5.33333333,8 C4.91254495,8 4.57142857,7.70152317 4.57142857,7.33333333 C4.57142857,6.9651435 4.91254495,6.66666667 5.33333333,6.66666667 C5.75412171,6.66666667 6.0952381,6.9651435 6.0952381,7.33333333 C6.0952381,7.70152317 5.75412171,8 5.33333333,8 Z M2.28571429,8 C1.8649259,8 1.52380952,7.70152317 1.52380952,7.33333333 C1.52380952,6.9651435 1.8649259,6.66666667 2.28571429,6.66666667 C2.70650267,6.66666667 3.04761905,6.9651435 3.04761905,7.33333333 C3.04761905,7.70152317 2.70650267,8 2.28571429,8 Z" id="Oval-43" fill="url(#linearGradient-3)" mask="url(#mask-2)"></path>
        </g>
    </g>
</svg>
